#Comment line ignore any data following # character 
#Hierarchical Translation and Rotation (.htr) file 
[Header]	
#Header keywords are followed by a single value 
FileType HTR		#Single word string
DataType HTRS		#Translation followed by rotation and scale data
FileVersion 1		#integer
NumSegments 64		#integer
NumFrames 3		#integer
DataFrameRate 30		#integer, data frame rate in this file
EulerRotationOrder ZYX
CalibrationUnits mm
RotationUnits Degrees
GlobalAxisofGravity Y
BoneLengthAxis Y
ScaleFactor 1.00
[SegmentNames&Hierarchy]
#CHILD	PARENT
Pinger_Root GLOBAL
Pelvis Pinger_Root
L_Hip Pelvis
R_Hip Pelvis
Rear_Leg01 Pelvis
Spine1 Pelvis
L_Leg01 L_Hip
L_Leg02 L_Leg01
L_Leg03 L_Leg02
L_Foot L_Leg03
L_Toe1_01 L_Foot
L_Toe2_01 L_Foot
L_Toe3_01 L_Foot
planeAlignerLeft L_Foot
L_Toe1_02 L_Toe1_01
L_Toe1_03 L_Toe1_02
L_Toe2_02 L_Toe2_01
L_Toe2_03 L_Toe2_02
L_Toe3_02 L_Toe3_01
L_Toe3_03 L_Toe3_02
planeLockWeightLeft planeAlignerLeft
R_Leg01 R_Hip
R_Leg02 R_Leg01
R_Leg03 R_Leg02
R_Foot R_Leg03
planeAlignerRight R_Foot
R_Toe1_01 R_Foot
R_Toe2_01 R_Foot
R_Toe3_01 R_Foot
planeLockWeightRight planeAlignerRight
R_Toe1_02 R_Toe1_01
R_Toe1_03 R_Toe1_02
R_Toe2_02 R_Toe2_01
R_Toe2_03 R_Toe2_02
R_Toe3_02 R_Toe3_01
R_Toe3_03 R_Toe3_02
Rear_Leg02 Rear_Leg01
Rear_Leg03 Rear_Leg02
Rear_Leg04 Rear_Leg03
Rear_Foot Rear_Leg04
planeAlignerCenter Rear_Foot
Rear_Toe1_01 Rear_Foot
Rear_Toe2_01 Rear_Foot
Rear_Toe3_01 Rear_Foot
planeLockWeightCenter planeAlignerCenter
Rear_Toe1_02 Rear_Toe1_01
Rear_Toe1_03 Rear_Toe1_02
Rear_Toe2_02 Rear_Toe2_01
Rear_Toe2_03 Rear_Toe2_02
Rear_Toe3_02 Rear_Toe3_01
Rear_Toe3_03 Rear_Toe3_02
Back_Bone Spine1
Head Spine1
Motor_Bone Back_Bone
Ping_Mechanism Back_Bone
BN_LookIK Head
bottomMouth Head
L_Mouth01 Head
L_mouthFront Head
mouthGun Head
R_Mouth01 Head
R_mouthFront Head
TopMouth Head
weapon_bone Head
[BasePosition]
#SegmentName Tx, Ty, Tz, Rx, Ry, Rz, BoneLength
Pinger_Root 0.000000 0.000000 0.000000 -90.000000 0.000000 0.000000 10.000000 
Pelvis 0.000000 0.000000 0.000000 0.000000 0.000000 0.000000 10.000000 
L_Hip 0.000000 0.000000 0.000000 0.000000 0.000000 0.000000 10.000000 
R_Hip 0.000000 0.000000 0.000000 0.000000 0.000000 0.000000 10.000000 
Rear_Leg01 0.000000 0.000000 0.000000 0.000000 0.000000 0.000000 10.000000 
Spine1 0.000000 0.000000 0.000000 0.000000 0.000000 0.000000 10.000000 
L_Leg01 0.000000 0.000000 0.000000 0.000000 0.000000 0.000000 10.000000 
L_Leg02 0.000000 0.000000 0.000000 0.000000 0.000000 0.000000 10.000000 
L_Leg03 0.000000 0.000000 0.000000 0.000000 0.000000 0.000000 10.000000 
L_Foot 0.000000 0.000000 0.000000 0.000000 0.000000 0.000000 10.000000 
L_Toe1_01 0.000000 0.000000 0.000000 0.000000 0.000000 0.000000 10.000000 
L_Toe2_01 0.000000 0.000000 0.000000 0.000000 0.000000 0.000000 10.000000 
L_Toe3_01 0.000000 0.000000 0.000000 0.000000 0.000000 0.000000 10.000000 
planeAlignerLeft 0.000000 0.000000 0.000000 0.000000 0.000000 0.000000 10.000000 
L_Toe1_02 0.000000 0.000000 0.000000 0.000000 0.000000 0.000000 10.000000 
L_Toe1_03 0.000000 0.000000 0.000000 0.000000 0.000000 0.000000 10.000000 
L_Toe2_02 0.000000 0.000000 0.000000 0.000000 0.000000 0.000000 10.000000 
L_Toe2_03 0.000000 0.000000 0.000000 0.000000 0.000000 0.000000 10.000000 
L_Toe3_02 0.000000 0.000000 0.000000 0.000000 0.000000 0.000000 10.000000 
L_Toe3_03 0.000000 0.000000 0.000000 0.000000 0.000000 0.000000 10.000000 
planeLockWeightLeft 0.000000 0.000000 0.000000 0.000000 0.000000 0.000000 10.000000 
R_Leg01 0.000000 0.000000 0.000000 0.000000 0.000000 0.000000 10.000000 
R_Leg02 0.000000 0.000000 0.000000 0.000000 0.000000 0.000000 10.000000 
R_Leg03 0.000000 0.000000 0.000000 0.000000 0.000000 0.000000 10.000000 
R_Foot 0.000000 0.000000 0.000000 0.000000 0.000000 0.000000 10.000000 
planeAlignerRight 0.000000 0.000000 0.000000 0.000000 0.000000 0.000000 10.000000 
R_Toe1_01 0.000000 0.000000 0.000000 0.000000 0.000000 0.000000 10.000000 
R_Toe2_01 0.000000 0.000000 0.000000 0.000000 0.000000 0.000000 10.000000 
R_Toe3_01 0.000000 0.000000 0.000000 0.000000 0.000000 0.000000 10.000000 
planeLockWeightRight 0.000000 0.000000 0.000000 0.000000 0.000000 0.000000 10.000000 
R_Toe1_02 0.000000 0.000000 0.000000 0.000000 0.000000 0.000000 10.000000 
R_Toe1_03 0.000000 0.000000 0.000000 0.000000 0.000000 0.000000 10.000000 
R_Toe2_02 0.000000 0.000000 0.000000 0.000000 0.000000 0.000000 10.000000 
R_Toe2_03 0.000000 0.000000 0.000000 0.000000 0.000000 0.000000 10.000000 
R_Toe3_02 0.000000 0.000000 0.000000 0.000000 0.000000 0.000000 10.000000 
R_Toe3_03 0.000000 0.000000 0.000000 0.000000 0.000000 0.000000 10.000000 
Rear_Leg02 0.000000 0.000000 0.000000 0.000000 0.000000 0.000000 10.000000 
Rear_Leg03 0.000000 0.000000 0.000000 0.000000 0.000000 0.000000 10.000000 
Rear_Leg04 0.000000 0.000000 0.000000 0.000000 0.000000 0.000000 10.000000 
Rear_Foot 0.000000 0.000000 0.000000 0.000000 0.000000 0.000000 10.000000 
planeAlignerCenter 0.000000 0.000000 0.000000 0.000000 0.000000 0.000000 10.000000 
Rear_Toe1_01 0.000000 0.000000 0.000000 0.000000 0.000000 0.000000 10.000000 
Rear_Toe2_01 0.000000 0.000000 0.000000 0.000000 0.000000 0.000000 10.000000 
Rear_Toe3_01 0.000000 0.000000 0.000000 0.000000 0.000000 0.000000 10.000000 
planeLockWeightCenter 0.000000 0.000000 0.000000 0.000000 0.000000 0.000000 10.000000 
Rear_Toe1_02 0.000000 0.000000 0.000000 0.000000 0.000000 0.000000 10.000000 
Rear_Toe1_03 0.000000 0.000000 0.000000 0.000000 0.000000 0.000000 10.000000 
Rear_Toe2_02 0.000000 0.000000 0.000000 0.000000 0.000000 0.000000 10.000000 
Rear_Toe2_03 0.000000 0.000000 0.000000 0.000000 0.000000 0.000000 10.000000 
Rear_Toe3_02 0.000000 0.000000 0.000000 0.000000 0.000000 0.000000 10.000000 
Rear_Toe3_03 0.000000 0.000000 0.000000 0.000000 0.000000 0.000000 10.000000 
Back_Bone 0.000000 0.000000 0.000000 0.000000 0.000000 0.000000 10.000000 
Head 0.000000 0.000000 0.000000 0.000000 0.000000 0.000000 10.000000 
Motor_Bone 0.000000 0.000000 0.000000 0.000000 0.000000 0.000000 10.000000 
Ping_Mechanism 0.000000 0.000000 0.000000 0.000000 0.000000 0.000000 10.000000 
BN_LookIK 0.000000 0.000000 0.000000 0.000000 0.000000 0.000000 10.000000 
bottomMouth 0.000000 0.000000 0.000000 0.000000 0.000000 0.000000 10.000000 
L_Mouth01 0.000000 0.000000 0.000000 0.000000 0.000000 0.000000 10.000000 
L_mouthFront 0.000000 0.000000 0.000000 0.000000 0.000000 0.000000 10.000000 
mouthGun 0.000000 0.000000 0.000000 0.000000 0.000000 0.000000 10.000000 
R_Mouth01 0.000000 0.000000 0.000000 0.000000 0.000000 0.000000 10.000000 
R_mouthFront 0.000000 0.000000 0.000000 0.000000 0.000000 0.000000 10.000000 
TopMouth 0.000000 0.000000 0.000000 0.000000 0.000000 0.000000 10.000000 
weapon_bone 0.000000 0.000000 0.000000 0.000000 0.000000 0.000000 10.000000 
#Beginning of Data. Separated by tabs
#Fr	Tx	Ty	Tz	Rx	Ry	Rz	SF
[Pinger_Root]
11 0.000000 0.000191 0.000000 -0.000075 -0.000000 -0.000020 0.000191
12 0.000000 0.000210 0.000000 -0.000075 -0.000000 -0.000020 0.000210
13 0.000000 0.000229 0.000000 -0.000075 -0.000000 -0.000020 0.000229
[Pelvis]
11 -185.355957 1092.758057 4156.410645 -45.331509 -73.051392 42.558067 4301.653809
12 -156.730133 1253.616089 4195.492676 -42.796371 -75.395210 39.297150 4381.583496
13 -114.421486 1429.699829 4252.463867 -41.513412 -77.837395 37.185417 4487.826172
[L_Hip]
11 5.766392 125.831482 872.656799 160.903244 -63.792027 113.413033 881.701050
12 5.766392 125.831482 872.656799 161.685333 -66.490936 111.640984 881.701050
13 5.766392 125.831482 872.656799 162.794800 -69.172028 109.553047 881.701050
[R_Hip]
11 5.765438 125.836372 -872.654907 33.586254 66.429230 120.702110 881.699829
12 5.765438 125.836372 -872.654907 31.830826 68.872940 119.121521 881.699829
13 5.765438 125.836372 -872.654907 29.647570 71.294716 117.111748 881.699829
[Rear_Leg01]
11 -192.298416 -925.602966 -0.001907 -177.266083 14.403087 -151.458588 945.367432
12 -192.298416 -925.602966 -0.001907 -179.346542 13.527858 -153.048126 945.367432
13 -192.298416 -925.602966 -0.001907 178.943542 12.069457 -151.754639 945.367432
[Spine1]
11 290.604584 5.007505 0.000477 -1.234468 -11.552299 13.885095 290.647736
12 290.604584 5.007505 0.000477 -0.383440 -10.802184 16.382618 290.647736
13 290.604584 5.007505 0.000477 0.801652 -9.752882 18.579987 290.647736
[L_Leg01]
11 761.932007 -0.002384 -0.069261 21.475615 -46.859791 -27.225277 761.932068
12 761.932007 -0.002384 -0.069261 28.290178 -45.603287 -33.902626 761.932068
13 761.932007 -0.002384 -0.069261 34.819546 -43.458546 -39.667713 761.932068
[L_Leg02]
11 1441.140503 -0.000954 -0.000715 2.118160 -0.263684 -129.723953 1441.140503
12 1441.140503 -0.000954 -0.000715 2.091515 -0.277447 -130.341812 1441.140503
13 1441.140503 -0.000954 -0.000715 2.019595 -0.288397 -130.598450 1441.140503
[L_Leg03]
11 1686.963989 -0.000715 -0.000954 -0.015190 0.004696 114.261101 1686.963989
12 1686.963989 -0.000715 -0.000954 -0.013305 0.003495 113.603958 1686.963989
13 1686.963989 -0.000715 -0.000954 -0.011407 0.002315 112.946861 1686.963989
[L_Foot]
11 3041.570068 -30.715107 11.297464 9.203911 14.042300 59.387177 3041.746094
12 3041.570068 -30.715107 11.297464 8.305908 14.237597 61.909592 3041.746094
13 3041.570068 -30.715107 11.297464 7.416792 14.471018 64.430962 3041.746094
[L_Toe1_01]
11 -188.216690 -224.732346 -21.137953 98.252708 -6.856590 -171.968933 293.899567
12 -188.216690 -224.732346 -21.137953 98.920464 -6.855324 -171.968491 293.899567
13 -188.216690 -224.732346 -21.137953 99.588158 -6.854062 -171.968033 293.899567
[L_Toe2_01]
11 200.746536 -219.926590 148.838394 -87.955940 -25.698341 -52.661591 332.896027
12 200.746536 -219.926590 148.838394 -87.668686 -25.613209 -52.658379 332.896027
13 200.746536 -219.926590 148.838394 -87.381630 -25.528088 -52.654690 332.896027
[L_Toe3_01]
11 188.832520 -219.859131 -191.078659 -107.778381 11.845283 -67.170639 347.140900
12 188.832520 -219.859131 -191.078659 -108.973091 11.552377 -67.070946 347.140900
13 188.832520 -219.859131 -191.078659 -110.167137 11.261569 -66.965172 347.140900
[planeAlignerLeft]
11 32.990112 -593.018616 101.087044 169.306686 -76.298271 89.968506 602.476501
12 32.990112 -593.018555 101.086914 169.306686 -76.298271 89.968506 602.476501
13 32.990112 -593.018494 101.086777 169.306686 -76.298271 89.968506 602.476379
[L_Toe1_02]
11 413.761139 0.000477 0.000000 0.001384 -25.976677 0.001384 413.761139
12 413.761139 0.000477 0.000000 0.001384 -25.973055 0.001384 413.761139
13 413.761139 0.000477 0.000000 0.001384 -25.969425 0.001384 413.761139
[L_Toe1_03]
11 464.317322 0.000358 -0.000089 0.003734 53.359097 0.003734 464.317322
12 464.317322 0.000358 -0.000089 0.003734 53.359097 0.003734 464.317322
13 464.317322 0.000358 -0.000089 0.003734 53.359097 0.003734 464.317322
[L_Toe2_02]
11 342.235809 -0.000477 0.000238 0.001188 -72.402016 0.001188 342.235809
12 342.235809 -0.000477 0.000238 0.001188 -72.402016 0.001188 342.235809
13 342.235809 -0.000477 0.000238 0.001188 -72.402016 0.001188 342.235809
[L_Toe2_03]
11 420.210846 -0.000715 0.000000 0.029090 85.375511 0.029090 420.210846
12 420.210846 -0.000715 0.000000 0.029090 85.375511 0.029090 420.210846
13 420.210846 -0.000715 0.000000 0.029090 85.375511 0.029090 420.210846
[L_Toe3_02]
11 329.270111 0.000954 0.000000 0.001178 -80.586838 0.001178 329.270111
12 329.270111 0.000954 0.000000 0.001178 -80.597534 0.001178 329.270111
13 329.270111 0.000954 0.000000 0.001178 -80.608131 0.001178 329.270111
[L_Toe3_03]
11 439.137451 -0.001907 0.000954 -179.995956 78.605698 -179.992447 439.137451
12 439.137451 -0.001907 0.000954 -179.995956 78.605721 -179.992447 439.137451
13 439.137451 -0.001907 0.000954 -179.995956 78.605698 -179.992447 439.137451
[planeLockWeightLeft]
11 -0.001068 0.000000 -0.000296 -0.011826 -0.004376 0.005620 0.001108
12 -0.001068 0.000000 -0.000296 -0.011826 -0.004376 0.005620 0.001108
13 -0.001068 0.000000 -0.000296 -0.011826 -0.004376 0.005620 0.001108
[R_Leg01]
11 761.455627 -0.001907 -0.000358 116.356125 -52.853222 15.383331 761.455688
12 761.455627 -0.001907 -0.000358 112.298004 -51.758232 25.328705 761.455688
13 761.455627 -0.001907 -0.000358 107.699608 -47.890572 36.983910 761.455688
[R_Leg02]
11 1441.140625 0.000000 -0.000238 -2.160443 -0.025415 -178.111511 1441.140625
12 1441.140625 0.000000 -0.000238 -1.861645 0.078576 -172.935089 1441.140625
13 1441.140625 0.000000 -0.000238 -1.487088 0.140031 -163.800537 1441.140625
[R_Leg03]
11 1686.963989 0.000954 0.001431 0.034252 -0.016386 119.889534 1686.963989
12 1686.963989 0.000954 0.001431 0.021690 -0.009840 116.187119 1686.963989
13 1686.963989 0.000954 0.001431 0.008717 -0.004113 112.480835 1686.963989
[R_Foot]
11 3041.560059 -30.531288 -11.204481 25.783201 -21.987228 76.847862 3041.734131
12 3041.560059 -30.531288 -11.204481 23.437407 -22.218897 79.147293 3041.734131
13 3041.560059 -30.531288 -11.204481 20.472202 -22.455624 80.853546 3041.734131
[planeAlignerRight]
11 -13.456423 -807.915283 6.138445 0.000000 -89.951546 -90.004936 808.050598
12 -11.400759 -754.617798 5.193940 0.000000 -89.951546 -90.004936 754.721863
13 -6.876759 -639.648926 3.121034 0.000000 -89.951546 -90.004936 639.693481
[R_Toe1_01]
11 -188.383347 -224.864899 21.052242 93.173729 1.589115 -149.025543 294.101532
12 -188.383347 -224.864899 21.052242 92.713852 1.772454 -153.680618 294.101532
13 -188.383347 -224.864899 21.052242 92.069450 2.091648 -163.197021 294.101532
[R_Toe2_01]
11 200.637817 -220.002121 -148.787384 -100.000237 10.584249 -58.721069 332.857574
12 200.637817 -220.002121 -148.787384 -100.082344 11.208012 -55.093834 332.857574
13 200.637817 -220.002121 -148.787384 -99.060287 12.883127 -46.384773 332.857574
[R_Toe3_01]
11 188.606735 -220.092957 191.126343 -72.720032 -12.537422 -60.719967 347.192566
12 188.606735 -220.092957 191.126343 -73.151886 -13.508325 -57.072090 347.192566
13 188.606735 -220.092957 191.126343 -74.989136 -15.781827 -48.365364 347.192566
[planeLockWeightRight]
11 999.999756 0.000305 -0.000029 -0.011823 -0.004379 -0.000027 999.999756
12 999.999939 0.000317 -0.000043 -0.011823 -0.004379 -0.000027 999.999939
13 999.999939 0.000329 -0.000058 -0.011823 -0.004379 -0.000027 999.999939
[R_Toe1_02]
11 413.762085 0.000477 -0.000119 0.001387 -25.586737 0.001387 413.762085
12 413.762085 0.000477 -0.000119 0.001393 -24.821505 0.001393 413.762085
13 413.762085 0.000477 -0.000119 0.001409 -22.783190 0.001409 413.762085
[R_Toe1_03]
11 464.317810 0.000000 0.001088 0.004836 61.912884 0.004836 464.317810
12 464.317810 0.000000 0.001088 0.006317 68.584633 0.006317 464.317810
13 464.317810 0.000000 0.001088 0.013111 79.728714 0.013111 464.317810
[R_Toe2_02]
11 342.234741 -0.000954 0.000238 0.001189 -71.253960 0.001189 342.234741
12 342.234741 -0.000954 0.000238 0.001186 -73.638809 0.001186 342.234741
13 342.234741 -0.000954 0.000238 -0.002338 -77.037865 -0.002338 342.234741
[R_Toe2_03]
11 420.210846 0.000715 -0.000268 0.018204 82.607132 0.018204 420.210846
12 420.210846 0.000715 -0.000268 -0.059550 88.924980 -0.063047 420.210846
13 420.210846 0.000715 -0.000268 -179.991959 79.516243 -179.995468 420.210846
[R_Toe3_02]
11 329.270355 -0.000477 -0.000954 0.001183 -75.384865 0.001183 329.270355
12 329.270355 -0.000477 -0.000954 0.001181 -77.531761 0.001181 329.270355
13 329.270355 -0.000477 -0.000954 0.001177 -80.707283 0.001177 329.270355
[R_Toe3_03]
11 439.137939 0.000238 0.001431 -0.016422 85.510086 -0.012923 439.137939
12 439.137939 0.000238 0.001431 -179.956055 88.558701 -179.952545 439.137939
13 439.137939 0.000238 0.001431 -179.996429 77.618546 -179.992920 439.137939
[Rear_Leg02]
11 1162.777710 -0.029802 0.005960 -3.097014 21.825054 -102.888580 1162.777710
12 1162.777710 -0.029802 0.005960 -0.760132 17.404978 -103.885567 1162.777710
13 1162.777710 -0.029802 0.005960 0.646336 11.284428 -100.933792 1162.777710
[Rear_Leg03]
11 607.192505 -0.013351 -0.073195 0.009300 -0.003791 63.389458 607.192505
12 607.192505 -0.013351 -0.073195 0.007951 -0.002775 61.219566 607.192505
13 607.192505 -0.013351 -0.073195 0.006565 -0.001811 59.050468 607.192505
[Rear_Leg04]
11 995.874512 -0.020504 -0.011921 -0.041920 -0.018650 56.645870 995.874573
12 995.874512 -0.020504 -0.011921 -0.040494 -0.018661 52.534985 995.874573
13 995.874512 -0.020504 -0.011921 -0.039072 -0.018571 48.429394 995.874573
[Rear_Foot]
11 3096.176270 -0.067472 -0.041425 55.874264 67.449417 -114.406311 3096.176270
12 3096.176270 -0.067472 -0.041425 52.994400 72.220917 -113.226761 3096.176270
13 3096.176270 -0.067472 -0.041425 51.812557 78.661201 -111.053436 3096.176270
[planeAlignerCenter]
11 2.068615 32.133476 -622.960205 12.240772 -0.001473 179.998184 623.791870
12 2.216263 28.316654 -658.202087 12.240772 -0.001473 179.998184 658.814636
13 2.363682 18.457954 -723.885742 12.240772 -0.001473 179.998184 724.124878
[Rear_Toe1_01]
11 0.653352 83.966492 -371.173737 0.198800 31.836304 90.318710 380.553192
12 0.653352 83.966492 -371.173737 0.200459 34.298752 90.309555 380.553192
13 0.653352 83.966492 -371.173737 0.223513 38.769829 90.312057 380.553192
[Rear_Toe2_01]
11 178.200760 -294.826019 -362.060547 -5.751767 26.052067 -64.385094 499.765686
12 178.200760 -294.826019 -362.060547 -5.090767 28.140083 -64.255295 499.765686
13 178.200760 -294.826019 -362.060547 -4.180871 31.907763 -64.194366 499.765686
[Rear_Toe3_01]
11 -153.359680 -308.780914 -362.060852 3.989540 25.591364 -113.318291 499.952881
12 -153.359680 -308.780914 -362.060852 3.898923 27.581553 -113.244095 499.952881
13 -153.359680 -308.780914 -362.060852 3.713104 31.193720 -113.061531 499.952881
[planeLockWeightCenter]
11 1000.000122 0.000540 -0.000127 -0.011814 -0.004373 -0.000015 1000.000122
12 1000.000122 0.000563 -0.000129 -0.011814 -0.004373 -0.000015 1000.000122
13 1000.000000 0.000587 -0.000131 -0.011814 -0.004373 -0.000015 1000.000000
[Rear_Toe1_02]
11 379.707825 0.194073 0.000477 -0.000767 -33.624729 0.000838 379.707855
12 379.707825 0.194073 0.000477 -0.000767 -33.624729 0.000838 379.707855
13 379.707825 0.194073 0.000477 -0.000767 -33.624729 0.000838 379.707855
[Rear_Toe1_03]
11 500.129700 0.165701 0.000119 -0.004314 63.616116 -0.000723 500.129761
12 500.129700 0.165701 0.000119 -0.004035 60.070435 -0.000416 500.129761
13 500.129700 0.165701 0.000119 -0.000009 52.806274 0.007369 500.129761
[Rear_Toe2_02]
11 340.494507 0.000238 -0.000954 0.001181 -77.430313 0.001181 340.494507
12 340.494507 0.000238 -0.000954 0.001182 -76.728500 0.001182 340.494507
13 340.494507 0.000238 -0.000954 0.001184 -74.717598 0.001184 340.494507
[Rear_Toe2_03]
11 433.103577 0.000000 0.000238 0.018172 82.594002 0.018172 433.103546
12 433.103577 0.000000 0.000238 0.015433 81.277420 0.015433 433.103546
13 433.103577 0.000000 0.000238 0.010984 77.732811 0.010984 433.103546
[Rear_Toe3_02]
11 340.494141 -0.000358 -0.000477 0.001183 -75.459846 0.001183 340.494171
12 340.494141 -0.000358 -0.000477 0.001184 -74.742477 0.001184 340.494171
13 340.494141 -0.000358 -0.000477 0.001187 -72.690331 0.001187 340.494171
[Rear_Toe3_03]
11 433.103577 0.001431 -0.000238 0.012269 79.021782 0.012269 433.103546
12 433.103577 0.001431 -0.000238 0.011024 77.777275 0.011024 433.103546
13 433.103577 0.001431 -0.000238 0.008599 74.311676 0.008599 433.103546
[Back_Bone]
11 1312.175781 -701.934692 0.000954 -0.841234 3.104054 -89.154594 1488.125488
12 1312.175781 -701.934692 0.000954 -1.200398 3.629890 -91.220825 1488.125488
13 1312.175781 -701.934692 0.000954 -1.498840 3.830254 -92.017120 1488.125488
[Head]
11 1406.159424 809.709290 0.001431 -0.320570 0.467988 7.246077 1622.625488
12 1406.159424 809.709290 0.001431 -0.368858 0.772188 8.285704 1622.625488
13 1406.159424 809.709290 0.001431 -0.436696 1.048134 9.008546 1622.625488
[Motor_Bone]
11 1158.364380 -417.834747 0.000477 -2.064748 -0.819208 -106.806320 1231.419434
12 1158.364380 -417.834747 0.000477 -1.940203 -0.666369 -106.653229 1231.419434
13 1158.364380 -417.834747 0.000477 -1.815254 -0.513865 -106.499817 1231.419434
[Ping_Mechanism]
11 1268.716553 -448.358734 65.415001 0.000103 -0.000053 82.120995 1347.199463
12 1258.444580 -446.073914 58.356827 0.000103 -0.000053 82.120995 1336.439331
13 1248.172363 -443.789063 51.298645 0.000103 -0.000053 82.120995 1325.712891
[BN_LookIK]
11 193.241119 1380.371704 -0.002861 0.000000 89.965736 -31.038179 1393.832153
12 193.241119 1380.371704 -0.002861 0.000000 89.965736 -31.038179 1393.832153
13 193.241119 1380.371704 -0.002861 0.000000 89.965736 -31.038179 1393.832153
[bottomMouth]
11 -435.092926 615.759399 -0.000954 -0.000022 0.000016 73.527184 753.966492
12 -435.092926 615.759399 -0.000954 -0.000022 0.000016 73.527184 753.966492
13 -435.092926 615.759399 -0.000954 -0.000022 0.000016 73.527184 753.966492
[L_Mouth01]
11 554.440979 7.658243 838.222046 150.204178 23.759130 109.605339 1005.027161
12 554.440979 7.658243 838.222046 150.204178 23.759130 109.605339 1005.027161
13 554.440979 7.658243 838.222046 150.204178 23.759130 109.605339 1005.027161
[L_mouthFront]
11 551.629089 934.514771 339.150421 0.000081 2.804060 79.119301 1136.941284
12 551.629089 934.514771 339.150421 0.000081 2.804060 79.119301 1136.941284
13 551.629089 934.514771 339.150421 0.000081 2.804060 79.119301 1136.941284
[mouthGun]
11 55.332661 1627.420898 0.000000 0.000023 0.000009 -11.038128 1628.361328
12 55.332661 1627.420898 0.000000 0.000023 0.000009 -11.038128 1628.361328
13 55.332661 1627.420898 0.000000 0.000023 0.000009 -11.038128 1628.361328
[R_Mouth01]
11 554.442383 7.659197 -838.223938 29.795891 -23.759109 109.605331 1005.029541
12 554.442383 7.659197 -838.223938 29.795891 -23.759109 109.605331 1005.029541
13 554.442383 7.659197 -838.223938 29.795891 -23.759109 109.605331 1005.029541
[R_mouthFront]
11 551.629089 934.514282 -339.151367 0.000029 -2.803930 79.119133 1136.941162
12 551.629089 934.514282 -339.151367 0.000029 -2.803930 79.119133 1136.941162
13 551.629089 934.514282 -339.151367 0.000029 -2.803930 79.119133 1136.941162
[TopMouth]
11 461.269867 -56.106091 -0.008583 -0.000059 -0.000268 92.025169 464.669525
12 461.269867 -56.106091 -0.008583 -0.000059 -0.000268 92.025169 464.669525
13 461.269867 -56.106091 -0.008583 -0.000059 -0.000268 92.025169 464.669525
[weapon_bone]
11 -987.239868 1448.372803 0.001431 0.000000 89.965736 -31.038221 1752.833740
12 -987.239868 1448.372803 0.001431 0.000000 89.965736 -31.038221 1752.833740
13 -987.239868 1448.372803 0.001431 0.000000 89.965736 -31.038221 1752.833740
